<svg width="10" height="10" viewBox="0 0 10 10" fill="none" xmlns="http://www.w3.org/2000/svg">
<path d="M5.00016 0.833328C5.81656 0.833281 6.61498 1.07307 7.29627 1.52291C7.97755 1.97275 8.51168 2.61282 8.8323 3.36363C9.15292 4.11443 9.24591 4.94288 9.09973 5.74609C8.95354 6.54929 8.57462 7.29185 8.01002 7.88154C7.44542 8.47123 6.72003 8.88207 5.92394 9.06302C5.12785 9.24398 4.29614 9.18707 3.53211 8.89938C2.76808 8.61169 2.1054 8.10589 1.62638 7.4448C1.14735 6.78371 0.873095 5.99646 0.837663 5.18083L0.833496 4.99999L0.837663 4.81916C0.884262 3.74645 1.34317 2.73314 2.11868 1.99054C2.8942 1.24795 3.92644 0.83339 5.00016 0.833328Z" fill="#62922A"/>
</svg>
