<svg width="230" height="268" viewBox="0 0 230 268" fill="none" xmlns="http://www.w3.org/2000/svg">
<path d="M206.023 0.527117C205.113 8.44833 202.086 15.7404 197.641 22.2389C190.421 32.7944 179.764 41.6141 168.307 49.9204C145.392 66.5319 119.174 81.5557 109.404 98.4918C100.234 114.389 98.8081 128.539 102.053 140.118C103.448 145.099 105.743 149.638 108.752 153.641C143.419 139.749 176.105 108.486 186.55 73.717C183.509 110.539 161.379 145.602 124.66 166.513L120.131 164.165C121.428 164.999 122.764 165.769 124.136 166.475C145.716 177.623 178.085 174.185 203.047 142.8C214.516 128.381 226.066 102.641 227.968 74.4484C229.613 50.0589 224.29 23.916 206.021 0.527411L206.023 0.527117ZM229.402 181.566C224.106 185.494 218.054 187.974 211.692 189.214C200.574 191.38 188.491 190.305 176.265 188.409C151.814 184.615 126.398 177.862 110.162 182.343C94.7826 186.589 85.2952 194.457 80.1816 203.565C77.9912 207.461 76.5476 211.724 75.9255 216.136C105.774 228.664 144.937 229.214 172.776 213.993C148.142 235.082 112.998 243.357 77.6242 233.929C84.1252 253.719 105.703 271.026 139.914 266.897C155.764 264.984 178.77 256.055 197.352 239.66C213.126 225.742 225.822 206.668 229.402 181.567L229.402 181.566ZM50.5113 33.5804C28.2284 45.8956 14.8583 64.526 7.44267 84.16C-1.29139 107.287 -1.42737 131.856 2.45465 147.258C10.832 180.501 34.8025 194.323 55.7088 193.272C34.1912 163.804 29.3709 128.209 40.3449 97.7838C36.0292 129.089 50.5695 165.257 73.0243 188.485C76.9435 186.331 80.4306 183.466 83.3048 180.039C90.0224 172.028 94.0028 160.379 92.4784 144.578C90.8688 127.899 75.4272 106.726 63.1082 85.3797C56.948 74.7079 51.6066 63.8814 49.6584 52.7805C48.543 46.4259 48.7202 39.9104 50.5116 33.5816L50.5113 33.5804Z" fill="#CFDDBD"/>
</svg>
