<svg width="20" height="16" viewBox="0 0 20 16" fill="none" xmlns="http://www.w3.org/2000/svg">
<path d="M2.44406 15.5557C1.92462 15.5557 1.4801 15.3709 1.11051 15.0013C0.740917 14.6317 0.555805 14.1869 0.555176 13.6668V2.33347C0.555176 1.81402 0.740287 1.36951 1.11051 0.999913C1.48073 0.630321 1.92525 0.44521 2.44406 0.44458H17.5552C18.0746 0.44458 18.5195 0.629691 18.8897 0.999913C19.2599 1.37014 19.4447 1.81465 19.4441 2.33347V13.6668C19.4441 14.1862 19.2593 14.6311 18.8897 15.0013C18.5201 15.3715 18.0753 15.5563 17.5552 15.5557H2.44406ZM9.99962 8.94458L17.5552 4.22236V2.33347L9.99962 7.05569L2.44406 2.33347V4.22236L9.99962 8.94458Z" fill="#FDFDFD"/>
</svg>
