<svg width="15" height="20" viewBox="0 0 15 20" fill="none" xmlns="http://www.w3.org/2000/svg">
<path d="M14.3333 7C14.3333 6.08075 14.1522 5.1705 13.8004 4.32122C13.4486 3.47194 12.933 2.70026 12.283 2.05025C11.633 1.40024 10.8613 0.884626 10.012 0.532843C9.16276 0.18106 8.2525 0 7.33325 0C6.414 0 5.50375 0.18106 4.65447 0.532843C3.80519 0.884626 3.03351 1.40024 2.3835 2.05025C1.73349 2.70026 1.21788 3.47194 0.866095 4.32122C0.514312 5.1705 0.333252 6.08075 0.333252 7C0.333252 8.387 0.742252 9.677 1.43825 10.765H1.43025L7.33325 20L13.2363 10.765H13.2293C13.9501 9.64158 14.3333 8.33481 14.3333 7ZM7.33325 10C6.5376 10 5.77454 9.68393 5.21193 9.12132C4.64932 8.55871 4.33325 7.79565 4.33325 7C4.33325 6.20435 4.64932 5.44129 5.21193 4.87868C5.77454 4.31607 6.5376 4 7.33325 4C8.1289 4 8.89196 4.31607 9.45457 4.87868C10.0172 5.44129 10.3333 6.20435 10.3333 7C10.3333 7.79565 10.0172 8.55871 9.45457 9.12132C8.89196 9.68393 8.1289 10 7.33325 10Z" fill="#FDFDFD"/>
</svg>
