<svg width="19" height="16" viewBox="0 0 19 16" fill="none" xmlns="http://www.w3.org/2000/svg">
<path d="M1.94431 15.5556C1.42486 15.5556 0.980346 15.3708 0.610753 15.0012C0.241161 14.6316 0.0560496 14.1868 0.0554199 13.6667V2.33335C0.0554199 1.8139 0.240531 1.36938 0.610753 0.999791C0.980976 0.630199 1.42549 0.445088 1.94431 0.444458H17.0554C17.5749 0.444458 18.0197 0.629569 18.3899 0.999791C18.7601 1.37001 18.9449 1.81453 18.9443 2.33335V13.6667C18.9443 14.1861 18.7595 14.631 18.3899 15.0012C18.0203 15.3714 17.5755 15.5562 17.0554 15.5556H1.94431ZM9.49986 8.94446L17.0554 4.22224V2.33335L9.49986 7.05557L1.94431 2.33335V4.22224L9.49986 8.94446Z" fill="#FDFDFD"/>
</svg>
