<svg width="19" height="18" viewBox="0 0 19 18" fill="none" xmlns="http://www.w3.org/2000/svg">
<path d="M16.8965 12.26L14.3565 11.97C14.0579 11.9349 13.7552 11.968 13.4711 12.0667C13.1871 12.1654 12.9291 12.3273 12.7165 12.54L10.8765 14.38C8.03773 12.9362 5.73032 10.6288 4.28654 7.79001L6.13654 5.94001C6.56654 5.51001 6.77654 4.91001 6.70654 4.30001L6.41654 1.78001C6.35985 1.29219 6.12574 0.842247 5.75878 0.515858C5.39182 0.18947 4.91765 0.00942751 4.42654 0.0100112H2.69654C1.56654 0.0100112 0.626545 0.950011 0.696545 2.08001C1.22654 10.62 8.05655 17.44 16.5865 17.97C17.7165 18.04 18.6565 17.1 18.6565 15.97V14.24C18.6665 13.23 17.9065 12.38 16.8965 12.26Z" fill="#FDFDFD"/>
</svg>
