<svg width="18" height="18" viewBox="0 0 18 18" fill="none" xmlns="http://www.w3.org/2000/svg">
<path d="M6.5 6.5V11.5M1.5 9V9.00833M16.5 9V9.00833M9 16.5V16.5083M5.25 2.5V2.50833M12.75 15.5V15.5083M5.25 15.5V15.5083M2.5 12.75V12.7583M15.5 12.75V12.7583M2.5 5.25V5.25833M15.5083 5.2725C14.8518 4.12624 13.9042 3.1737 12.7613 2.51126C11.6185 1.84881 10.321 1.49996 9 1.5M9 8.16667V9.83333C9 10.2754 9.17559 10.6993 9.48816 11.0118C9.80072 11.3244 10.2246 11.5 10.6667 11.5C11.1087 11.5 11.5326 11.3244 11.8452 11.0118C12.1577 10.6993 12.3333 10.2754 12.3333 9.83333V8.16667C12.3333 7.72464 12.1577 7.30072 11.8452 6.98816C11.5326 6.67559 11.1087 6.5 10.6667 6.5C10.2246 6.5 9.80072 6.67559 9.48816 6.98816C9.17559 7.30072 9 7.72464 9 8.16667Z" stroke="black" stroke-width="1.83333" stroke-linecap="round" stroke-linejoin="round"/>
</svg>
