<svg width="12" height="16" viewBox="0 0 12 16" fill="none" xmlns="http://www.w3.org/2000/svg">
<path d="M0.760214 0.453005C0.771949 0.328703 0.829765 0.21329 0.922292 0.12946C1.01482 0.0456311 1.13536 -0.00054781 1.26021 4.90477e-06H11.5002C11.5699 -2.48888e-05 11.6387 0.014494 11.7024 0.042631C11.7661 0.0707681 11.8233 0.111903 11.8702 0.163399C11.917 0.214896 11.9526 0.275619 11.9747 0.341677C11.9968 0.407735 12.0048 0.477671 11.9982 0.547005L11.2392 8.547C11.2275 8.67096 11.17 8.78609 11.0779 8.86987C10.9858 8.95366 10.8657 9.00006 10.7412 9H10.0762L10.9952 15.43C11.0113 15.5601 10.9757 15.6914 10.896 15.7954C10.8162 15.8995 10.6988 15.9681 10.569 15.9865C10.4392 16.0049 10.3074 15.9715 10.2019 15.8936C10.0965 15.8157 10.0258 15.6995 10.0052 15.57L9.63821 13H7.36221L6.99521 15.57C6.97461 15.6995 6.90397 15.8157 6.79852 15.8936C6.69307 15.9715 6.56123 16.0049 6.43142 15.9865C6.3016 15.9681 6.18419 15.8995 6.10447 15.7954C6.02475 15.6914 5.98911 15.5601 6.00521 15.43L6.35221 13H3.36221L2.99521 15.57C2.97461 15.6995 2.90397 15.8157 2.79852 15.8936C2.69307 15.9715 2.56123 16.0049 2.43142 15.9865C2.3016 15.9681 2.18419 15.8995 2.10447 15.7954C2.02475 15.6914 1.98911 15.5601 2.00521 15.43L2.92321 9H0.500214C0.430572 9.00003 0.361692 8.98552 0.297987 8.95738C0.234283 8.92924 0.177158 8.88811 0.130275 8.83661C0.0833911 8.78511 0.0477826 8.72439 0.0257301 8.65833C0.0036776 8.59227 -0.00433243 8.52234 0.00221391 8.453L0.760214 0.453005ZM3.50621 12H6.49621L6.92521 9H3.93521L3.50621 12ZM7.50621 12H9.49621L9.06721 9H7.93521L7.50621 12ZM10.2882 8L10.9512 1H1.71321L1.05021 8H10.2882Z" fill="black"/>
</svg>
