<svg width="24" height="33" viewBox="0 0 24 33" fill="none" xmlns="http://www.w3.org/2000/svg">
<path d="M16.5 31L15.876 31.936C16.0454 32.049 16.2423 32.1138 16.4457 32.1236C16.6491 32.1335 16.8513 32.0879 17.0308 31.9918C17.2103 31.8958 17.3604 31.7528 17.4651 31.5781C17.5697 31.4034 17.625 31.2037 17.625 31H16.5ZM12 28L12.624 27.064C12.4392 26.9409 12.2221 26.8751 12 26.8751C11.7779 26.8751 11.5608 26.9409 11.376 27.064L12 28ZM7.49998 31H6.37498C6.375 31.2037 6.43027 31.4034 6.53491 31.5781C6.63955 31.7528 6.78964 31.8958 6.96916 31.9918C7.14868 32.0879 7.35091 32.1335 7.55429 32.1236C7.75767 32.1138 7.95456 32.049 8.12398 31.936L7.49998 31ZM17.124 30.064L12.624 27.064L11.376 28.936L15.876 31.936L17.124 30.064ZM11.376 27.064L6.87598 30.064L8.12398 31.936L12.624 28.936L11.376 27.064ZM13.428 2.91404L13.491 2.98904L15.2055 1.53104L15.141 1.45604L13.428 2.91404ZM16.9635 4.42754L17.061 4.41854L16.881 2.17604L16.7835 2.18504L16.9635 4.42754ZM19.0815 6.43754L19.0725 6.53654L21.315 6.71654L21.324 6.61904L19.0815 6.43754ZM20.511 10.0075L20.586 10.072L22.044 8.35904L21.969 8.29454L20.511 10.0075ZM20.586 12.928L20.511 12.991L21.969 14.7055L22.044 14.641L20.586 12.928ZM19.0725 16.4635L19.0815 16.561L21.324 16.381L21.315 16.2835L19.0725 16.4635ZM17.0625 18.5815L16.9635 18.5725L16.7835 20.815L16.881 20.824L17.0625 18.5815ZM13.4925 20.011L13.428 20.086L15.141 21.544L15.2055 21.469L13.4925 20.011ZM10.572 20.086L10.5075 20.011L8.79448 21.469L8.85898 21.544L10.572 20.086ZM7.03648 18.5725L6.93898 18.58L7.11898 20.824L7.21648 20.8165L7.03648 18.5725ZM4.91848 16.5625L4.92748 16.4635L2.68498 16.2835L2.67598 16.381L4.91848 16.5625ZM3.48898 12.9925L3.41398 12.928L1.95598 14.641L2.03098 14.7055L3.48898 12.9925ZM3.41398 10.072L3.48898 10.0075L2.03098 8.29454L1.95598 8.35904L3.41398 10.072ZM4.92748 6.53654L4.91848 6.43904L2.67598 6.61904L2.68498 6.71654L4.92748 6.53654ZM6.93748 4.41854L7.03648 4.42754L7.21648 2.18504L7.11898 2.17604L6.93748 4.41854ZM10.5075 2.98904L10.572 2.91404L8.85898 1.45604L8.79448 1.53104L10.5075 2.98904ZM7.03648 4.42754C7.68798 4.47978 8.34257 4.37646 8.94631 4.1261C9.55004 3.87574 10.0856 3.4855 10.509 2.98754L8.79448 1.53104C8.60204 1.75723 8.35863 1.93447 8.08428 2.04817C7.80994 2.16187 7.51251 2.20878 7.21648 2.18504L7.03648 4.42754ZM4.91848 6.43904C4.89696 6.16837 4.93448 5.89475 5.02845 5.64C5.12242 5.38526 5.2706 5.15396 5.46274 4.9621C5.65488 4.77025 5.8864 4.62241 6.14129 4.52882C6.39617 4.43523 6.66834 4.39811 6.93898 4.42004L7.11898 2.17754C6.52334 2.12954 5.92437 2.21153 5.36354 2.41784C4.8027 2.62414 4.29339 2.94984 3.87084 3.37239C3.44829 3.79494 3.12259 4.30426 2.91628 4.86509C2.70997 5.42593 2.62798 6.02489 2.67598 6.62054L4.91848 6.43904ZM3.48898 10.0075C3.98646 9.5842 4.37628 9.04877 4.62637 8.44533C4.87646 7.84188 4.97966 7.18767 4.92748 6.53654L2.68498 6.71654C2.73298 7.31654 2.48998 7.90454 2.03098 8.29454L3.48898 10.0075ZM3.41398 12.928C3.20712 12.752 3.04097 12.5332 2.92703 12.2866C2.81308 12.04 2.75407 11.7717 2.75407 11.5C2.75407 11.2284 2.81308 10.96 2.92703 10.7135C3.04097 10.4669 3.20712 10.2481 3.41398 10.072L1.95598 8.35904C1.50109 8.74628 1.13574 9.22772 0.885189 9.77004C0.634643 10.3124 0.504883 10.9026 0.504883 11.5C0.504883 12.0974 0.634643 12.6877 0.885189 13.23C1.13574 13.7724 1.50109 14.2538 1.95598 14.641L3.41398 12.928ZM4.92748 16.4635C4.97972 15.812 4.87641 15.1575 4.62605 14.5537C4.37568 13.95 3.98544 13.4144 3.48748 12.991L2.03098 14.7055C2.48998 15.0955 2.73298 15.6835 2.68498 16.2835L4.92748 16.4635ZM6.93748 18.5815C6.66669 18.6033 6.39441 18.5659 6.13948 18.4721C5.88454 18.3782 5.65306 18.2301 5.46103 18.0379C5.26901 17.8457 5.12104 17.6141 5.02736 17.3591C4.93368 17.1041 4.89653 16.8318 4.91848 16.561L2.67598 16.381C2.62798 16.9767 2.70997 17.5756 2.91628 18.1365C3.12259 18.6973 3.44829 19.2066 3.87084 19.6292C4.29339 20.0517 4.8027 20.3774 5.36354 20.5837C5.92437 20.79 6.52334 20.872 7.11898 20.824L6.93748 18.5815ZM13.428 20.086C13.252 20.2929 13.0331 20.4591 12.7865 20.573C12.54 20.6869 12.2716 20.7459 12 20.7459C11.7284 20.7459 11.46 20.6869 11.2134 20.573C10.9669 20.4591 10.748 20.2929 10.572 20.086L8.85898 21.544C9.24623 21.9989 9.72766 22.3643 10.27 22.6148C10.8123 22.8654 11.4026 22.9951 12 22.9951C12.5974 22.9951 13.1877 22.8654 13.73 22.6148C14.2723 22.3643 14.7537 21.9989 15.141 21.544L13.428 20.086ZM19.0815 16.561C19.1032 16.8318 19.0659 17.1041 18.972 17.359C18.8781 17.614 18.73 17.8455 18.5378 18.0375C18.3457 18.2295 18.1141 18.3775 17.8591 18.4712C17.6041 18.5648 17.3318 18.602 17.061 18.58L16.881 20.824C17.4766 20.872 18.0756 20.79 18.6364 20.5837C19.1973 20.3774 19.7066 20.0517 20.1291 19.6292C20.5517 19.2066 20.8774 18.6973 21.0837 18.1365C21.29 17.5756 21.372 16.9767 21.324 16.381L19.0815 16.561ZM20.511 12.991C20.0133 13.4145 19.6233 13.9502 19.3732 14.5539C19.1231 15.1577 19.0201 15.8122 19.0725 16.4635L21.315 16.2835C21.267 15.6835 21.51 15.0955 21.969 14.7055L20.511 12.991ZM20.586 10.072C20.7928 10.2481 20.959 10.4669 21.0729 10.7135C21.1869 10.96 21.2459 11.2284 21.2459 11.5C21.2459 11.7717 21.1869 12.04 21.0729 12.2866C20.959 12.5332 20.7928 12.752 20.586 12.928L22.044 14.641C22.4989 14.2538 22.8642 13.7724 23.1148 13.23C23.3653 12.6877 23.4951 12.0974 23.4951 11.5C23.4951 10.9026 23.3653 10.3124 23.1148 9.77004C22.8642 9.22772 22.4989 8.74628 22.044 8.35904L20.586 10.072ZM19.0725 6.53654C19.0202 7.18804 19.1236 7.84262 19.3739 8.44636C19.6243 9.0501 20.0145 9.5857 20.5125 10.009L21.969 8.29454C21.7428 8.1021 21.5656 7.85868 21.4518 7.58434C21.3381 7.30999 21.2912 7.01256 21.315 6.71654L19.0725 6.53654ZM17.0625 4.41854C17.3333 4.39678 17.6056 4.43414 17.8605 4.528C18.1154 4.62187 18.3469 4.77002 18.5389 4.96218C18.731 5.15435 18.8789 5.38595 18.9726 5.64095C19.0663 5.89595 19.1034 6.16676 19.0815 6.43754L21.324 6.61904C21.372 6.02339 21.29 5.42443 21.0837 4.86359C20.8774 4.30276 20.5517 3.79344 20.1291 3.37089C19.7066 2.94834 19.1973 2.62264 18.6364 2.41634C18.0756 2.21003 17.4766 2.12804 16.881 2.17604L17.0625 4.41854ZM13.491 2.98904C13.9143 3.48651 14.4512 3.87634 15.0547 4.12642C15.6581 4.37651 16.3124 4.47972 16.9635 4.42754L16.7835 2.18504C16.4875 2.20878 16.19 2.16187 15.9157 2.04817C15.6413 1.93447 15.3979 1.75723 15.2055 1.53104L13.491 2.98904ZM15.1425 1.45604C14.7552 1.00063 14.2736 0.634828 13.731 0.383965C13.1884 0.133103 12.5978 0.00317383 12 0.00317383C11.4022 0.00317383 10.8115 0.133103 10.2689 0.383965C9.72633 0.634828 9.24473 1.00063 8.85748 1.45604L10.572 2.91404C10.748 2.70717 10.9669 2.54102 11.2134 2.42708C11.46 2.31314 11.7284 2.25413 12 2.25413C12.2716 2.25413 12.54 2.31314 12.7865 2.42708C13.0331 2.54102 13.252 2.70717 13.428 2.91404L15.1425 1.45604ZM10.5075 20.011C10.1403 19.5795 9.68812 19.2283 9.1792 18.9793C8.67028 18.7303 8.11551 18.5887 7.54948 18.5635L7.45048 20.812C7.96648 20.8345 8.45548 21.07 8.79448 21.469L10.5075 20.011ZM7.54948 18.5635C7.37846 18.5559 7.20713 18.5589 7.03648 18.5725L7.21648 20.815C7.29433 20.8088 7.3725 20.8078 7.45048 20.812L7.54948 18.5635ZM8.62498 31V19.687H6.37498V31H8.62498ZM16.965 18.5725C16.7938 18.5589 16.622 18.5559 16.4505 18.5635L16.5495 20.812C16.6275 20.8078 16.7056 20.8088 16.7835 20.815L16.965 18.5725ZM16.4505 18.5635C15.8842 18.5885 15.3291 18.73 14.82 18.979C14.3108 19.2281 13.8599 19.5794 13.4925 20.011L15.2055 21.469C15.3724 21.2731 15.5779 21.1137 15.8091 21.0007C16.0403 20.8877 16.2924 20.8234 16.5495 20.812L16.4505 18.5635ZM15.375 19.6885V31H17.625V19.687L15.375 19.6885Z" fill="#62922A"/>
</svg>
