<svg width="30" height="24" viewBox="0 0 30 24" fill="none" xmlns="http://www.w3.org/2000/svg">
<path d="M15 23.3333H0.833374V20.5H8.97921C7.91671 16.5192 4.81421 13.4167 0.833374 12.3683C1.74004 12.1417 2.68921 12 3.66671 12C9.92837 12 15 17.0717 15 23.3333ZM29.1667 12.3683C28.26 12.1417 27.3109 12 26.3334 12C22.1825 12 18.5417 14.2383 16.5867 17.5675C16.9975 18.5025 17.3375 19.48 17.5359 20.5C17.72 21.4208 17.8334 22.37 17.8334 23.3333H29.1667V20.5H21.0067C22.0834 16.5192 25.1859 13.4167 29.1667 12.3683ZM20.1567 10.5833C21.2617 7.65082 23.3159 5.17166 25.9509 3.49999C19.8734 3.72666 15 8.69916 15 14.8333C16.3459 13.0625 18.1167 11.6033 20.1567 10.5833ZM14.1784 7.53749C13.5917 5.99651 12.6958 4.59195 11.5459 3.4103C10.3959 2.22864 9.01618 1.29493 7.49171 0.666656C9.53171 3.30166 10.75 6.58832 10.75 10.1725C10.75 10.47 10.7075 10.7533 10.6934 11.0367C11.3025 11.3767 11.8692 11.7733 12.4217 12.1983C12.7248 10.5524 13.3197 8.97398 14.1784 7.53749Z" fill="#62922A"/>
</svg>
