<svg width="18" height="18" viewBox="0 0 18 18" fill="none" xmlns="http://www.w3.org/2000/svg">
<path d="M8.99994 0.291748C10.078 0.291418 11.1278 0.636682 11.9953 1.27686C12.8627 1.91704 13.5021 2.81843 13.8196 3.84871C14.1371 4.87899 14.1159 5.98392 13.7593 7.0013C13.4026 8.01869 12.7292 8.89496 11.8379 9.5015C13.385 10.0689 14.7268 11.0863 15.6906 12.4228C16.6545 13.7593 17.1963 15.3537 17.2463 17.0007C17.2509 17.0922 17.2373 17.1836 17.2062 17.2697C17.175 17.3558 17.127 17.4348 17.065 17.5021C17.0029 17.5693 16.928 17.6235 16.8447 17.6615C16.7614 17.6994 16.6713 17.7204 16.5798 17.7231C16.4883 17.7257 16.3972 17.7101 16.3118 17.6771C16.2264 17.6441 16.1485 17.5944 16.0826 17.5309C16.0167 17.4674 15.9641 17.3913 15.928 17.3072C15.8919 17.2231 15.8729 17.1326 15.8722 17.0411C15.8176 15.2549 15.0697 13.5602 13.7869 12.316C12.5042 11.0719 10.7874 10.3761 9.0004 10.3761C7.2134 10.3761 5.49662 11.0719 4.21386 12.316C2.93111 13.5602 2.18319 15.2549 2.12861 17.0411C2.12314 17.2234 2.04546 17.3961 1.91266 17.5212C1.77986 17.6462 1.60282 17.7134 1.42048 17.708C1.23814 17.7025 1.06545 17.6248 0.940386 17.492C0.815322 17.3592 0.748135 17.1822 0.753606 16.9998C0.803791 15.353 1.34568 13.7588 2.30952 12.4225C3.27336 11.0862 4.61506 10.0689 6.16194 9.5015C5.27065 8.89496 4.59726 8.01869 4.24061 7.0013C3.88395 5.98392 3.86281 4.87899 4.1803 3.84871C4.49778 2.81843 5.13717 1.91704 6.0046 1.27686C6.87204 0.636682 7.92185 0.291418 8.99994 0.291748ZM5.33327 5.33342C5.33327 6.30588 5.71958 7.23851 6.40721 7.92614C7.09485 8.61377 8.02748 9.00008 8.99994 9.00008C9.9724 9.00008 10.905 8.61377 11.5927 7.92614C12.2803 7.23851 12.6666 6.30588 12.6666 5.33342C12.6666 4.36096 12.2803 3.42832 11.5927 2.74069C10.905 2.05306 9.9724 1.66675 8.99994 1.66675C8.02748 1.66675 7.09485 2.05306 6.40721 2.74069C5.71958 3.42832 5.33327 4.36096 5.33327 5.33342Z" fill="#6B6F68"/>
</svg>
