<svg width="18" height="18" viewBox="0 0 18 18" fill="none" xmlns="http://www.w3.org/2000/svg">
<path d="M9.00006 0.291672C10.0782 0.291342 11.128 0.636605 11.9954 1.27679C12.8628 1.91697 13.5022 2.81835 13.8197 3.84863C14.1372 4.87892 14.116 5.98384 13.7594 7.00123C13.4027 8.01862 12.7293 8.89489 11.8381 9.50142C13.3851 10.0688 14.7269 11.0863 15.6907 12.4228C16.6546 13.7593 17.1964 15.3536 17.2464 17.0007C17.2511 17.0921 17.2374 17.1835 17.2063 17.2696C17.1752 17.3557 17.1272 17.4347 17.0651 17.502C17.003 17.5693 16.9281 17.6235 16.8448 17.6614C16.7615 17.6994 16.6715 17.7203 16.58 17.723C16.4885 17.7257 16.3973 17.7101 16.312 17.6771C16.2266 17.6441 16.1486 17.5943 16.0827 17.5308C16.0168 17.4673 15.9642 17.3912 15.9281 17.3071C15.892 17.223 15.873 17.1325 15.8723 17.041C15.8177 15.2548 15.0698 13.5601 13.7871 12.316C12.5043 11.0718 10.7875 10.376 9.00052 10.376C7.21352 10.376 5.49674 11.0718 4.21399 12.316C2.93123 13.5601 2.18332 15.2548 2.12873 17.041C2.12326 17.2233 2.04558 17.396 1.91278 17.5211C1.77998 17.6462 1.60294 17.7134 1.4206 17.7079C1.23827 17.7024 1.06557 17.6247 0.940508 17.4919C0.815444 17.3591 0.748258 17.1821 0.753728 16.9998C0.803913 15.3529 1.3458 13.7587 2.30964 12.4224C3.27349 11.0861 4.61518 10.0688 6.16206 9.50142C5.27077 8.89489 4.59738 8.01862 4.24073 7.00123C3.88407 5.98384 3.86294 4.87892 4.18042 3.84863C4.4979 2.81835 5.13729 1.91697 6.00473 1.27679C6.87216 0.636605 7.92197 0.291342 9.00006 0.291672ZM5.33339 5.33334C5.33339 6.3058 5.7197 7.23843 6.40734 7.92606C7.09497 8.6137 8.0276 9.00001 9.00006 9.00001C9.97252 9.00001 10.9052 8.6137 11.5928 7.92606C12.2804 7.23843 12.6667 6.3058 12.6667 5.33334C12.6667 4.36088 12.2804 3.42825 11.5928 2.74061C10.9052 2.05298 9.97252 1.66667 9.00006 1.66667C8.0276 1.66667 7.09497 2.05298 6.40734 2.74061C5.7197 3.42825 5.33339 4.36088 5.33339 5.33334Z" fill="#FDFDFD"/>
</svg>
