<svg width="31" height="26" viewBox="0 0 31 26" fill="none" xmlns="http://www.w3.org/2000/svg">
<path d="M25.2501 5.705C24.1401 6.8 23.8551 8.375 24.3801 9.725L20.0001 14.105V11C20.0001 10.175 19.3251 9.5 18.5001 9.5H16.9551C17.0001 9.245 17.0001 9.005 17.0001 8.75C17.0001 4.19 13.3101 0.500004 8.75006 0.500004C7.05085 0.49841 5.39263 1.02183 4.00226 1.99865C2.61188 2.97547 1.55724 4.358 0.982616 5.9571C0.407989 7.55621 0.341436 9.29379 0.792059 10.9322C1.24268 12.5705 2.18848 14.0297 3.50006 15.11V24.5C3.50006 25.325 4.17506 26 5.00006 26H18.5001C19.3251 26 20.0001 25.325 20.0001 24.5V18.335L26.4951 11.84C27.8451 12.365 29.4201 12.095 30.5001 11L25.2501 5.705ZM3.57506 9.5C3.54506 9.245 3.50006 9.005 3.50006 8.75C3.50006 5.855 5.85506 3.5 8.75006 3.5C11.6451 3.5 14.0001 5.855 14.0001 8.75C14.0001 9.005 13.9551 9.245 13.9251 9.5H3.57506Z" fill="#62922A"/>
</svg>
