<svg width="24" height="31" viewBox="0 0 24 31" fill="none" xmlns="http://www.w3.org/2000/svg">
<path d="M7.75 12.1667C7.76467 11.0441 8.21715 9.97156 9.01102 9.17769C9.80489 8.38382 10.8774 7.93134 12 7.91667C13.1226 7.93134 14.1951 8.38382 14.989 9.17769C15.7828 9.97156 16.2353 11.0441 16.25 12.1667C16.2353 13.2893 15.7828 14.3618 14.989 15.1556C14.1951 15.9495 13.1226 16.402 12 16.4167C10.8774 16.402 9.80489 15.9495 9.01102 15.1556C8.21715 14.3618 7.76467 13.2893 7.75 12.1667ZM12 24.9167L17.6667 26.3333V21.97C15.9577 22.9991 13.9947 23.5292 12 23.5C10.0053 23.5292 8.04229 22.9991 6.33333 21.97V26.3333M12 3.66667C10.8836 3.6463 9.77487 3.85447 8.7419 4.27837C7.70894 4.70228 6.77358 5.33296 5.99333 6.13167C5.18599 6.91277 4.54801 7.85164 4.11907 8.88988C3.69012 9.92811 3.4794 11.0435 3.5 12.1667C3.48524 13.2827 3.6988 14.39 4.12757 15.4205C4.55634 16.451 5.19126 17.383 5.99333 18.1592C6.76994 18.9656 7.70367 19.6041 8.7368 20.0354C9.76994 20.4667 10.8806 20.6815 12 20.6667C13.1194 20.6815 14.2301 20.4667 15.2632 20.0354C16.2963 19.6041 17.2301 18.9656 18.0067 18.1592C18.8087 17.383 19.4437 16.451 19.8724 15.4205C20.3012 14.39 20.5148 13.2827 20.5 12.1667C20.5206 11.0435 20.3099 9.92811 19.8809 8.88988C19.452 7.85164 18.814 6.91277 18.0067 6.13167C17.2264 5.33296 16.2911 4.70228 15.2581 4.27837C14.2251 3.85447 13.1164 3.6463 12 3.66667ZM23.3333 12.1667C23.3032 13.5265 23.0297 14.8699 22.5258 16.1333C22.0719 17.4189 21.3852 18.6098 20.5 19.6467V30.5833L12 27.75L3.5 30.5833V19.6467C1.66639 17.5875 0.657458 14.9239 0.666665 12.1667C0.641696 10.68 0.921717 9.20398 1.48944 7.82975C2.05716 6.45552 2.90054 5.21224 3.9675 4.17667C5.00691 3.10014 6.25593 2.24806 7.63746 1.67303C9.01899 1.09801 10.5037 0.812226 12 0.833335C13.4963 0.812226 14.981 1.09801 16.3625 1.67303C17.7441 2.24806 18.9931 3.10014 20.0325 4.17667C21.0995 5.21224 21.9428 6.45552 22.5106 7.82975C23.0783 9.20398 23.3583 10.68 23.3333 12.1667Z" fill="#62922A"/>
</svg>
