<svg width="26" height="23" viewBox="0 0 26 23" fill="none" xmlns="http://www.w3.org/2000/svg">
<path d="M1.66665 8.58333H0.958313V2.20833H2.37498V8.58333H1.66665ZM8.74998 1.5H13V9.29167H5.20831V1.5H8.04165H8.74998ZM20.4771 17.4942C20.7123 17.1733 20.9489 16.8956 21.1458 16.6782C21.3427 16.8956 21.5793 17.174 21.8145 17.4942C22.4109 18.3088 22.9166 19.2806 22.9166 20.1745C22.9166 21.2313 22.0985 22.0417 21.1458 22.0417C20.1931 22.0417 19.375 21.2313 19.375 20.1745C19.375 19.2806 19.8807 18.308 20.4771 17.4942ZM23.625 10V10.7083H25.0416V13.5417H16.5416V10.7083H17.9583V9.29167C17.9583 8.72808 17.7344 8.18758 17.3359 7.78906C16.9374 7.39055 16.3969 7.16667 15.8333 7.16667V1.5H17.25C18.9407 1.5 20.5622 2.17165 21.7578 3.36719C22.9533 4.56274 23.625 6.18424 23.625 7.875V10Z" fill="#62922A" stroke="#62922A" stroke-width="1.41667"/>
</svg>
