<svg width="34" height="28" viewBox="0 0 34 28" fill="none" xmlns="http://www.w3.org/2000/svg">
<path d="M16.925 17L15.23 14H21.14C22.25 14 23.315 14.645 23.825 15.665L24.5 17H16.925ZM33.5 23C33.5 25.49 31.49 27.5 29 27.5C27.05 27.5 25.4 26.24 24.77 24.5H16.475C15.635 26.27 13.835 27.5 11.75 27.5C9.665 27.5 7.865 26.27 7.025 24.5H2C1.175 24.5 0.5 23.825 0.5 23V12.5C0.5 12.005 0.755 11.54 1.16 11.255C1.565 11 2.09 10.925 2.555 11.105L10.145 14.135L4.13 3.5H0.5V0.5H5.87L16.055 18.5H29C31.49 18.5 33.5 20.51 33.5 23ZM10.01 17.315L3.5 14.75V21.5H6.575C6.86 19.55 8.195 17.96 10.01 17.315ZM14 22.25C14 21.005 12.995 20 11.75 20C10.505 20 9.5 21.005 9.5 22.25C9.5 23.495 10.505 24.5 11.75 24.5C12.995 24.5 14 23.495 14 22.25ZM30.5 23C30.5 22.175 29.825 21.5 29 21.5C28.175 21.5 27.5 22.175 27.5 23C27.5 23.825 28.175 24.5 29 24.5C29.825 24.5 30.5 23.825 30.5 23Z" fill="#62922A"/>
</svg>
