<svg width="19" height="16" viewBox="0 0 19 16" fill="none" xmlns="http://www.w3.org/2000/svg">
<path d="M2.06566 15.3333C1.5615 15.3333 1.13005 15.154 0.77133 14.7952C0.412608 14.4365 0.232941 14.0048 0.23233 13.5V2.49999C0.23233 1.99582 0.411997 1.56438 0.77133 1.20566C1.13066 0.846934 1.56211 0.667268 2.06566 0.666656H16.7323C17.2365 0.666656 17.6682 0.846323 18.0276 1.20566C18.3869 1.56499 18.5663 1.99643 18.5657 2.49999V13.5C18.5657 14.0042 18.3863 14.4359 18.0276 14.7952C17.6689 15.1546 17.2371 15.3339 16.7323 15.3333H2.06566ZM9.399 8.91666L16.7323 4.33332V2.49999L9.399 7.08332L2.06566 2.49999V4.33332L9.399 8.91666Z" fill="#FDFDFD"/>
</svg>
