<svg width="15" height="20" viewBox="0 0 15 20" fill="none" xmlns="http://www.w3.org/2000/svg">
<path d="M14.25 7C14.25 6.08075 14.0689 5.1705 13.7172 4.32122C13.3654 3.47194 12.8498 2.70026 12.1997 2.05025C11.5497 1.40024 10.7781 0.884626 9.92878 0.532843C9.0795 0.18106 8.16925 0 7.25 0C6.33075 0 5.42049 0.18106 4.57122 0.532843C3.72194 0.884626 2.95026 1.40024 2.30025 2.05025C1.65024 2.70026 1.13463 3.47194 0.782843 4.32122C0.43106 5.1705 0.25 6.08075 0.25 7C0.25 8.387 0.659 9.677 1.355 10.765H1.347L7.25 20L13.153 10.765H13.146C13.8669 9.64158 14.2501 8.33481 14.25 7ZM7.25 10C6.45435 10 5.69129 9.68393 5.12868 9.12132C4.56607 8.55871 4.25 7.79565 4.25 7C4.25 6.20435 4.56607 5.44129 5.12868 4.87868C5.69129 4.31607 6.45435 4 7.25 4C8.04565 4 8.80871 4.31607 9.37132 4.87868C9.93393 5.44129 10.25 6.20435 10.25 7C10.25 7.79565 9.93393 8.55871 9.37132 9.12132C8.80871 9.68393 8.04565 10 7.25 10Z" fill="#DDDEDC"/>
</svg>
