<svg width="17" height="18" viewBox="0 0 17 18" fill="none" xmlns="http://www.w3.org/2000/svg">
<path d="M15.0265 11.9883L12.6982 11.7225C12.4244 11.6903 12.1469 11.7206 11.8865 11.8111C11.6261 11.9016 11.3896 12.05 11.1948 12.245L9.50816 13.9317C6.90592 12.6082 4.79079 10.4931 3.46733 7.89082L5.16316 6.19499C5.55733 5.80082 5.74983 5.25082 5.68566 4.69166L5.41983 2.38166C5.36786 1.93448 5.15325 1.52204 4.81688 1.22285C4.4805 0.92366 4.04584 0.758622 3.59566 0.759157H2.00983C0.973994 0.759157 0.112327 1.62082 0.176494 2.65666C0.662327 10.485 6.92316 16.7367 14.7423 17.2225C15.7782 17.2867 16.6398 16.425 16.6398 15.3892V13.8033C16.649 12.8775 15.9523 12.0983 15.0265 11.9883Z" fill="#FDFDFD"/>
</svg>
