<svg width="20" height="20" viewBox="0 0 20 20" fill="none" xmlns="http://www.w3.org/2000/svg">
<path d="M1.9375 0.0625L1.51525 0.46075L0.46075 1.51525L0.0625 1.9375L0.367 2.4295L1.9375 5.0545L2.14825 5.4295H4.3525L7.3525 8.40625C4.672 11.0988 1.26175 14.5202 1.14175 14.641C-0.0334999 15.8155 -0.0357501 17.74 1.16425 18.8597C2.3365 20.0163 4.24675 20.0462 5.3605 18.8597L5.383 18.8358L10 14.1955L14.641 18.859L14.7108 18.9062C15.8883 20.0163 17.761 20.0312 18.8597 18.859V18.8365H18.8822C20.0312 17.6612 20.0432 15.751 18.8597 14.6403L18.8358 14.6178L14.9222 10.7267C17.5555 10.4808 19.618 8.257 19.6562 5.5705H19.6795C19.6825 5.5555 19.6795 5.53825 19.6795 5.52325V5.5C19.753 4.633 19.5655 3.8035 19.117 3.08575L18.6025 2.29L15.1097 5.782L14.0553 4.68025L17.6178 1.11775L16.5865 0.69625C15.9287 0.406856 15.2186 0.254997 14.5 0.25C11.617 0.25 9.25 2.617 9.25 5.5C9.25 5.8135 9.3175 6.08575 9.367 6.367C9.03925 6.6955 8.79325 6.96475 8.40625 7.35175L5.4295 4.375V2.14825L5.0545 1.9375L2.4295 0.367L1.9375 0.0625ZM14.5 1.75C14.605 1.75 14.6785 1.8115 14.7812 1.8205L11.9455 4.65625L12.4608 5.1955L14.5705 7.375L15.0858 7.91425L18.0625 4.9375C18.0775 5.11 18.2005 5.236 18.1795 5.4295V5.5C18.1795 7.5655 16.495 9.25 14.4295 9.25C14.1543 9.25 13.8205 9.1855 13.4455 9.109L13.0465 9.03925L12.7653 9.3205L4.30525 17.8045H4.28125V17.8285C3.74875 18.4112 2.8165 18.4255 2.1955 17.8045V17.7812H2.1715C1.58875 17.2488 1.5745 16.3165 2.1955 15.6955C2.47975 15.4105 7.984 9.859 10.6795 7.16425L10.9847 6.85975L10.867 6.4375C10.7958 6.12986 10.7566 5.8157 10.75 5.5C10.75 3.4345 12.4345 1.75 14.5 1.75ZM2.1715 1.9375L3.9295 3.016V3.766L3.766 3.9295H3.016L1.9375 2.17225L2.1715 1.9375ZM13.1403 11.0545L17.8053 15.6955V15.7188H17.8278C18.4113 16.2512 18.4255 17.1835 17.8053 17.8045H17.7812V17.8285C17.2488 18.4112 16.3165 18.4255 15.6955 17.8045L11.0545 13.141L13.1403 11.0545Z" fill="#62922A"/>
</svg>
